<mxfile host="app.diagrams.net" agent="Mozilla/5.0 (Windows NT 10.0; Win64; x64) AppleWebKit/537.36 (KHTML, like Gecko) Chrome/132.0.0.0 Safari/537.36 Edg/132.0.0.0" version="26.0.6">
  <diagram name="Page-1" id="eJz08GM-zbSY59BGjZ2Q">
    <mxGraphModel dx="1282" dy="613" grid="1" gridSize="10" guides="1" tooltips="1" connect="1" arrows="1" fold="1" page="1" pageScale="1" pageWidth="850" pageHeight="1100" math="0" shadow="0">
      <root>
        <mxCell id="0" />
        <mxCell id="1" parent="0" />
        <mxCell id="MD88hJ4Fs84x3BSwIw1M-1" value="Category&amp;nbsp;" style="rounded=0;whiteSpace=wrap;html=1;" vertex="1" parent="1">
          <mxGeometry x="170" y="200" width="120" height="60" as="geometry" />
        </mxCell>
        <mxCell id="MD88hJ4Fs84x3BSwIw1M-2" value="Film" style="rounded=0;whiteSpace=wrap;html=1;" vertex="1" parent="1">
          <mxGeometry x="550" y="200" width="120" height="60" as="geometry" />
        </mxCell>
        <mxCell id="MD88hJ4Fs84x3BSwIw1M-3" value="" style="rounded=0;whiteSpace=wrap;html=1;" vertex="1" parent="1">
          <mxGeometry x="350" y="330" width="120" height="60" as="geometry" />
        </mxCell>
        <mxCell id="MD88hJ4Fs84x3BSwIw1M-4" value="Category_Film" style="rounded=0;whiteSpace=wrap;html=1;" vertex="1" parent="1">
          <mxGeometry x="360" y="340" width="100" height="40" as="geometry" />
        </mxCell>
        <mxCell id="MD88hJ4Fs84x3BSwIw1M-5" value="&lt;u&gt;category_id&lt;/u&gt;" style="ellipse;whiteSpace=wrap;html=1;" vertex="1" parent="1">
          <mxGeometry x="260" y="100" width="80" height="50" as="geometry" />
        </mxCell>
        <mxCell id="MD88hJ4Fs84x3BSwIw1M-7" value="status" style="ellipse;whiteSpace=wrap;html=1;" vertex="1" parent="1">
          <mxGeometry x="100" y="300" width="80" height="50" as="geometry" />
        </mxCell>
        <mxCell id="MD88hJ4Fs84x3BSwIw1M-8" value="description" style="ellipse;whiteSpace=wrap;html=1;" vertex="1" parent="1">
          <mxGeometry x="60" y="210" width="80" height="50" as="geometry" />
        </mxCell>
        <mxCell id="MD88hJ4Fs84x3BSwIw1M-9" value="category_name" style="ellipse;whiteSpace=wrap;html=1;" vertex="1" parent="1">
          <mxGeometry x="140" y="120" width="80" height="50" as="geometry" />
        </mxCell>
        <mxCell id="MD88hJ4Fs84x3BSwIw1M-10" value="duration" style="ellipse;whiteSpace=wrap;html=1;" vertex="1" parent="1">
          <mxGeometry x="750" y="200" width="80" height="50" as="geometry" />
        </mxCell>
        <mxCell id="MD88hJ4Fs84x3BSwIw1M-11" value="content" style="ellipse;whiteSpace=wrap;html=1;" vertex="1" parent="1">
          <mxGeometry x="750" y="110" width="80" height="50" as="geometry" />
        </mxCell>
        <mxCell id="MD88hJ4Fs84x3BSwIw1M-12" value="film_name" style="ellipse;whiteSpace=wrap;html=1;" vertex="1" parent="1">
          <mxGeometry x="640" y="110" width="80" height="50" as="geometry" />
        </mxCell>
        <mxCell id="MD88hJ4Fs84x3BSwIw1M-13" value="&lt;u&gt;film_id&lt;/u&gt;" style="ellipse;whiteSpace=wrap;html=1;" vertex="1" parent="1">
          <mxGeometry x="520" y="110" width="80" height="50" as="geometry" />
        </mxCell>
        <mxCell id="MD88hJ4Fs84x3BSwIw1M-15" value="release_date" style="ellipse;whiteSpace=wrap;html=1;" vertex="1" parent="1">
          <mxGeometry x="600" y="300" width="80" height="50" as="geometry" />
        </mxCell>
        <mxCell id="MD88hJ4Fs84x3BSwIw1M-16" value="director" style="ellipse;whiteSpace=wrap;html=1;" vertex="1" parent="1">
          <mxGeometry x="710" y="280" width="80" height="50" as="geometry" />
        </mxCell>
        <mxCell id="MD88hJ4Fs84x3BSwIw1M-17" value="category_id" style="ellipse;whiteSpace=wrap;html=1;" vertex="1" parent="1">
          <mxGeometry x="280" y="430" width="80" height="50" as="geometry" />
        </mxCell>
        <mxCell id="MD88hJ4Fs84x3BSwIw1M-18" value="film_id" style="ellipse;whiteSpace=wrap;html=1;" vertex="1" parent="1">
          <mxGeometry x="440" y="430" width="80" height="50" as="geometry" />
        </mxCell>
        <mxCell id="MD88hJ4Fs84x3BSwIw1M-19" value="" style="endArrow=none;html=1;rounded=0;entryX=0.5;entryY=1;entryDx=0;entryDy=0;exitX=0.75;exitY=0;exitDx=0;exitDy=0;" edge="1" parent="1" source="MD88hJ4Fs84x3BSwIw1M-1" target="MD88hJ4Fs84x3BSwIw1M-5">
          <mxGeometry width="50" height="50" relative="1" as="geometry">
            <mxPoint x="400" y="340" as="sourcePoint" />
            <mxPoint x="450" y="290" as="targetPoint" />
          </mxGeometry>
        </mxCell>
        <mxCell id="MD88hJ4Fs84x3BSwIw1M-20" value="" style="endArrow=none;html=1;rounded=0;entryX=0.5;entryY=1;entryDx=0;entryDy=0;exitX=0.25;exitY=0;exitDx=0;exitDy=0;" edge="1" parent="1" source="MD88hJ4Fs84x3BSwIw1M-1" target="MD88hJ4Fs84x3BSwIw1M-9">
          <mxGeometry width="50" height="50" relative="1" as="geometry">
            <mxPoint x="400" y="340" as="sourcePoint" />
            <mxPoint x="450" y="290" as="targetPoint" />
          </mxGeometry>
        </mxCell>
        <mxCell id="MD88hJ4Fs84x3BSwIw1M-21" value="" style="endArrow=none;html=1;rounded=0;entryX=0.985;entryY=0.64;entryDx=0;entryDy=0;entryPerimeter=0;exitX=0;exitY=0.5;exitDx=0;exitDy=0;" edge="1" parent="1" source="MD88hJ4Fs84x3BSwIw1M-1" target="MD88hJ4Fs84x3BSwIw1M-8">
          <mxGeometry width="50" height="50" relative="1" as="geometry">
            <mxPoint x="400" y="340" as="sourcePoint" />
            <mxPoint x="450" y="290" as="targetPoint" />
          </mxGeometry>
        </mxCell>
        <mxCell id="MD88hJ4Fs84x3BSwIw1M-22" value="" style="endArrow=none;html=1;rounded=0;exitX=1.005;exitY=0.328;exitDx=0;exitDy=0;exitPerimeter=0;entryX=0.5;entryY=1;entryDx=0;entryDy=0;" edge="1" parent="1" source="MD88hJ4Fs84x3BSwIw1M-7" target="MD88hJ4Fs84x3BSwIw1M-1">
          <mxGeometry width="50" height="50" relative="1" as="geometry">
            <mxPoint x="400" y="340" as="sourcePoint" />
            <mxPoint x="450" y="290" as="targetPoint" />
          </mxGeometry>
        </mxCell>
        <mxCell id="MD88hJ4Fs84x3BSwIw1M-23" value="" style="endArrow=none;html=1;rounded=0;entryX=0.5;entryY=1;entryDx=0;entryDy=0;exitX=0.25;exitY=0;exitDx=0;exitDy=0;" edge="1" parent="1" source="MD88hJ4Fs84x3BSwIw1M-2" target="MD88hJ4Fs84x3BSwIw1M-13">
          <mxGeometry width="50" height="50" relative="1" as="geometry">
            <mxPoint x="400" y="340" as="sourcePoint" />
            <mxPoint x="450" y="290" as="targetPoint" />
          </mxGeometry>
        </mxCell>
        <mxCell id="MD88hJ4Fs84x3BSwIw1M-24" value="" style="endArrow=none;html=1;rounded=0;entryX=0.5;entryY=1;entryDx=0;entryDy=0;exitX=0.75;exitY=0;exitDx=0;exitDy=0;" edge="1" parent="1" source="MD88hJ4Fs84x3BSwIw1M-2" target="MD88hJ4Fs84x3BSwIw1M-12">
          <mxGeometry width="50" height="50" relative="1" as="geometry">
            <mxPoint x="400" y="340" as="sourcePoint" />
            <mxPoint x="450" y="290" as="targetPoint" />
          </mxGeometry>
        </mxCell>
        <mxCell id="MD88hJ4Fs84x3BSwIw1M-25" value="" style="endArrow=none;html=1;rounded=0;entryX=0;entryY=1;entryDx=0;entryDy=0;exitX=1;exitY=0.25;exitDx=0;exitDy=0;" edge="1" parent="1" source="MD88hJ4Fs84x3BSwIw1M-2" target="MD88hJ4Fs84x3BSwIw1M-11">
          <mxGeometry width="50" height="50" relative="1" as="geometry">
            <mxPoint x="400" y="340" as="sourcePoint" />
            <mxPoint x="450" y="290" as="targetPoint" />
          </mxGeometry>
        </mxCell>
        <mxCell id="MD88hJ4Fs84x3BSwIw1M-26" value="" style="endArrow=none;html=1;rounded=0;entryX=0;entryY=0.5;entryDx=0;entryDy=0;exitX=1;exitY=0.5;exitDx=0;exitDy=0;" edge="1" parent="1" source="MD88hJ4Fs84x3BSwIw1M-2" target="MD88hJ4Fs84x3BSwIw1M-10">
          <mxGeometry width="50" height="50" relative="1" as="geometry">
            <mxPoint x="400" y="340" as="sourcePoint" />
            <mxPoint x="450" y="290" as="targetPoint" />
          </mxGeometry>
        </mxCell>
        <mxCell id="MD88hJ4Fs84x3BSwIw1M-27" value="" style="endArrow=none;html=1;rounded=0;entryX=0;entryY=0;entryDx=0;entryDy=0;exitX=1;exitY=1;exitDx=0;exitDy=0;" edge="1" parent="1" source="MD88hJ4Fs84x3BSwIw1M-2" target="MD88hJ4Fs84x3BSwIw1M-16">
          <mxGeometry width="50" height="50" relative="1" as="geometry">
            <mxPoint x="400" y="340" as="sourcePoint" />
            <mxPoint x="450" y="290" as="targetPoint" />
          </mxGeometry>
        </mxCell>
        <mxCell id="MD88hJ4Fs84x3BSwIw1M-28" value="" style="endArrow=none;html=1;rounded=0;entryX=0.5;entryY=1;entryDx=0;entryDy=0;exitX=0.5;exitY=0;exitDx=0;exitDy=0;" edge="1" parent="1" source="MD88hJ4Fs84x3BSwIw1M-15" target="MD88hJ4Fs84x3BSwIw1M-2">
          <mxGeometry width="50" height="50" relative="1" as="geometry">
            <mxPoint x="400" y="340" as="sourcePoint" />
            <mxPoint x="450" y="290" as="targetPoint" />
          </mxGeometry>
        </mxCell>
        <mxCell id="MD88hJ4Fs84x3BSwIw1M-29" value="" style="endArrow=none;html=1;rounded=0;exitX=0.625;exitY=0;exitDx=0;exitDy=0;exitPerimeter=0;entryX=0.093;entryY=1;entryDx=0;entryDy=0;entryPerimeter=0;" edge="1" parent="1" source="MD88hJ4Fs84x3BSwIw1M-17" target="MD88hJ4Fs84x3BSwIw1M-3">
          <mxGeometry width="50" height="50" relative="1" as="geometry">
            <mxPoint x="400" y="340" as="sourcePoint" />
            <mxPoint x="450" y="290" as="targetPoint" />
          </mxGeometry>
        </mxCell>
        <mxCell id="MD88hJ4Fs84x3BSwIw1M-30" value="" style="endArrow=none;html=1;rounded=0;exitX=0.375;exitY=0;exitDx=0;exitDy=0;exitPerimeter=0;entryX=0.653;entryY=1.013;entryDx=0;entryDy=0;entryPerimeter=0;" edge="1" parent="1" source="MD88hJ4Fs84x3BSwIw1M-18" target="MD88hJ4Fs84x3BSwIw1M-3">
          <mxGeometry width="50" height="50" relative="1" as="geometry">
            <mxPoint x="400" y="340" as="sourcePoint" />
            <mxPoint x="450" y="290" as="targetPoint" />
          </mxGeometry>
        </mxCell>
        <mxCell id="MD88hJ4Fs84x3BSwIw1M-31" value="có" style="rhombus;whiteSpace=wrap;html=1;" vertex="1" parent="1">
          <mxGeometry x="275" y="290" width="50" height="50" as="geometry" />
        </mxCell>
        <mxCell id="MD88hJ4Fs84x3BSwIw1M-32" value="có" style="rhombus;whiteSpace=wrap;html=1;" vertex="1" parent="1">
          <mxGeometry x="470" y="250" width="50" height="50" as="geometry" />
        </mxCell>
        <mxCell id="MD88hJ4Fs84x3BSwIw1M-33" value="" style="endArrow=classic;html=1;rounded=0;entryX=0;entryY=0.25;entryDx=0;entryDy=0;exitX=1;exitY=1;exitDx=0;exitDy=0;" edge="1" parent="1" source="MD88hJ4Fs84x3BSwIw1M-31" target="MD88hJ4Fs84x3BSwIw1M-3">
          <mxGeometry width="50" height="50" relative="1" as="geometry">
            <mxPoint x="400" y="340" as="sourcePoint" />
            <mxPoint x="450" y="290" as="targetPoint" />
          </mxGeometry>
        </mxCell>
        <mxCell id="MD88hJ4Fs84x3BSwIw1M-38" value="n" style="edgeLabel;html=1;align=center;verticalAlign=middle;resizable=0;points=[];" vertex="1" connectable="0" parent="MD88hJ4Fs84x3BSwIw1M-33">
          <mxGeometry x="-0.2409" relative="1" as="geometry">
            <mxPoint as="offset" />
          </mxGeometry>
        </mxCell>
        <mxCell id="MD88hJ4Fs84x3BSwIw1M-34" value="" style="endArrow=classic;html=1;rounded=0;entryX=0.75;entryY=0;entryDx=0;entryDy=0;exitX=0;exitY=1;exitDx=0;exitDy=0;" edge="1" parent="1" source="MD88hJ4Fs84x3BSwIw1M-32" target="MD88hJ4Fs84x3BSwIw1M-3">
          <mxGeometry width="50" height="50" relative="1" as="geometry">
            <mxPoint x="400" y="340" as="sourcePoint" />
            <mxPoint x="450" y="290" as="targetPoint" />
          </mxGeometry>
        </mxCell>
        <mxCell id="MD88hJ4Fs84x3BSwIw1M-42" value="n" style="edgeLabel;html=1;align=center;verticalAlign=middle;resizable=0;points=[];" vertex="1" connectable="0" parent="MD88hJ4Fs84x3BSwIw1M-34">
          <mxGeometry x="-0.3184" relative="1" as="geometry">
            <mxPoint as="offset" />
          </mxGeometry>
        </mxCell>
        <mxCell id="MD88hJ4Fs84x3BSwIw1M-35" value="" style="endArrow=none;html=1;rounded=0;entryX=0;entryY=0;entryDx=0;entryDy=0;exitX=0.75;exitY=1;exitDx=0;exitDy=0;" edge="1" parent="1" source="MD88hJ4Fs84x3BSwIw1M-1" target="MD88hJ4Fs84x3BSwIw1M-31">
          <mxGeometry width="50" height="50" relative="1" as="geometry">
            <mxPoint x="400" y="340" as="sourcePoint" />
            <mxPoint x="450" y="290" as="targetPoint" />
          </mxGeometry>
        </mxCell>
        <mxCell id="MD88hJ4Fs84x3BSwIw1M-37" value="1" style="edgeLabel;html=1;align=center;verticalAlign=middle;resizable=0;points=[];" vertex="1" connectable="0" parent="MD88hJ4Fs84x3BSwIw1M-35">
          <mxGeometry x="0.0045" y="-1" relative="1" as="geometry">
            <mxPoint as="offset" />
          </mxGeometry>
        </mxCell>
        <mxCell id="MD88hJ4Fs84x3BSwIw1M-36" value="" style="endArrow=none;html=1;rounded=0;entryX=1;entryY=0;entryDx=0;entryDy=0;exitX=0;exitY=0.5;exitDx=0;exitDy=0;" edge="1" parent="1" source="MD88hJ4Fs84x3BSwIw1M-2" target="MD88hJ4Fs84x3BSwIw1M-32">
          <mxGeometry width="50" height="50" relative="1" as="geometry">
            <mxPoint x="400" y="340" as="sourcePoint" />
            <mxPoint x="450" y="290" as="targetPoint" />
          </mxGeometry>
        </mxCell>
        <mxCell id="MD88hJ4Fs84x3BSwIw1M-41" value="1" style="edgeLabel;html=1;align=center;verticalAlign=middle;resizable=0;points=[];" vertex="1" connectable="0" parent="MD88hJ4Fs84x3BSwIw1M-36">
          <mxGeometry x="0.0749" y="-1" relative="1" as="geometry">
            <mxPoint as="offset" />
          </mxGeometry>
        </mxCell>
      </root>
    </mxGraphModel>
  </diagram>
</mxfile>
